<?xml version="1.0" encoding="UTF-8" standalone="no"?>
<svg
   xmlns:dc="http://purl.org/dc/elements/1.1/"
   xmlns:cc="http://creativecommons.org/ns#"
   xmlns:rdf="http://www.w3.org/1999/02/22-rdf-syntax-ns#"
   xmlns:svg="http://www.w3.org/2000/svg"
   xmlns="http://www.w3.org/2000/svg"
   xmlns:sodipodi="http://sodipodi.sourceforge.net/DTD/sodipodi-0.dtd"
   xmlns:inkscape="http://www.inkscape.org/namespaces/inkscape"
   version="1.1"
   x="0px"
   y="0px"
   viewBox="0 0 100 100"
   enable-background="new 0 0 100 100"
   xml:space="preserve"
   id="svg4255"
   inkscape:version="0.91 r13725"
   sodipodi:docname="backmark.svg"
   inkscape:export-filename="/Users/mike/Downloads/backmark.png"
   inkscape:export-xdpi="65.440002"
   inkscape:export-ydpi="65.440002"><metadata
     id="metadata4265"><rdf:RDF><cc:Work
         rdf:about=""><dc:format>image/svg+xml</dc:format><dc:type
           rdf:resource="http://purl.org/dc/dcmitype/StillImage" /><dc:title /></cc:Work></rdf:RDF></metadata><defs
     id="defs4263" /><sodipodi:namedview
     pagecolor="#ffffff"
     bordercolor="#666666"
     borderopacity="1"
     objecttolerance="10"
     gridtolerance="10"
     guidetolerance="10"
     inkscape:pageopacity="0"
     inkscape:pageshadow="2"
     inkscape:window-width="1280"
     inkscape:window-height="751"
     id="namedview4261"
     showgrid="false"
     inkscape:zoom="2.8284271"
     inkscape:cx="18.69419"
     inkscape:cy="11.244497"
     inkscape:window-x="0"
     inkscape:window-y="1"
     inkscape:window-maximized="1"
     inkscape:current-layer="svg4255" /><g
     id="g4271"
     transform="matrix(-1,0,0,-1,99.999,100)"
     style="fill:#4d4d4d"><path
       id="path4257"
       d="m 47.165,75 -5.33,0 C 40.27,75 39,76.27 39,77.834 l 0,13.332 C 39,92.73 40.27,94 41.835,94 l 5.33,0 C 48.73,94 50,92.73 50,91.166 L 50,77.834 C 50,76.27 48.73,75 47.165,75 Z"
       inkscape:connector-curvature="0"
       style="fill:#4d4d4d" /><path
       id="path4259"
       d="M 91.597,-75.1 50,-24.463964 8.403,-75.1 C 5.4570427,-78.686114 0,-71.299 0,-66.612 L 0,-30.1005 0,81.511 C 3.634,85.145 15.081,96.678 18.403,100 l 73.193,0 c 4.641,0 8.403,-3.801 8.403,-8.488 l 0,-116.612 0,-41.512 C 100,-71.299 96.237,-75.1 91.597,-75.1 Z M 85,3 85,14 15,14 15,3 Z m 0,12 0,12 -70,0 0,-12 z m 0,82 -52,0 0,-20.33 C 33,73.538 35.538,71 38.669,71 l 40.662,0 C 82.462,71 85,73.538 85,76.67 Z M 81.995,42 18.005,42 C 16.346,42 15,40.655 15,38.996 L 15,28 85,28 85,38.996 C 85,40.655 83.654,42 81.995,42 Z"
       inkscape:connector-curvature="0"
       sodipodi:nodetypes="scsscccssccsccccccccccccsssscsssccss"
       style="fill:#4d4d4d" /></g></svg>